<svg xmlns="http://www.w3.org/2000/svg" width="13.778" height="13.5" viewBox="0 0 13.778 13.5">
  <defs>
    <style>
      .cls-1 {
        fill: #08869e;
        stroke: #08869e;
        stroke-width: 0.5px;
      }
    </style>
  </defs>
  <path id="Path_166" data-name="Path 166" class="cls-1" d="M76.153,93.605l-6.031-6.5a.71.71,0,0,0-1.025,0l-6.031,6.5a.245.245,0,1,0,.359.333l1.044-1.125v6.344a.735.735,0,0,0,.734.734h8.812a.735.735,0,0,0,.734-.734V92.814l1.044,1.125a.245.245,0,0,0,.359-.333Zm-4.83,5.8H67.9V94.751a1.47,1.47,0,0,1,1.469-1.469h.49a1.47,1.47,0,0,1,1.469,1.469Zm2.937-7.1v6.854a.245.245,0,0,1-.245.245h-2.2V94.751a1.961,1.961,0,0,0-1.958-1.958h-.49a1.961,1.961,0,0,0-1.958,1.958V99.4H65.2a.245.245,0,0,1-.245-.245V92.3h-.016l4.513-4.86a.209.209,0,0,1,.307,0l4.513,4.86Z" transform="translate(-62.72 -86.642)"/>
</svg>
