<svg id="Logos" xmlns="http://www.w3.org/2000/svg" width="16.29cm" height="2.94cm" viewBox="0 0 461.88 83.4">
  <title>Tufin Preferred Full</title>
  <g id="Primary">
    <path id="wordmark" d="M158.11,63.86a6,6,0,0,1-1.27-3.48V22H134.5V32.8a5.14,5.14,0,0,1,1.72,1.72,6.65,6.65,0,0,1,1.55,4.06v21.8a6.59,6.59,0,0,1-.62,3.43,4.86,4.86,0,0,1-1.41,1.41V77h23.78V65.22a4.27,4.27,0,0,1-1.41-1.36m-68.71.86a11.87,11.87,0,0,1-.86-3.91V22.23H66.29V32.81a3.92,3.92,0,0,1,2.44,1.84A5.72,5.72,0,0,1,69.66,38V59.78a6.77,6.77,0,0,1-.49,3.29,2.45,2.45,0,0,1-2,1.12H64a5.3,5.3,0,0,1-4.33-1.56c-1.94-2.19-1.21-6.53-1.21-9.15V22.23H35.75V32.81a6.33,6.33,0,0,1,1.64.83,4.42,4.42,0,0,1,1.72,3.53V62.82c0,16.13,17,18,27.53,12.29,1.1-.59,3.62-1.31,3.62.87v1.09H91.79V66.81a4.34,4.34,0,0,1-2.39-2.09M115.91.64c-11.54.59-15,6.74-15,15v2.65a4.54,4.54,0,0,1-1.09,3.42,2.36,2.36,0,0,1-1.36.82V32.79a5,5,0,0,1,2,2.34c.67,1.36.47,2.64.47,4.06v21.2c0,1.44.22,2.79-.77,4a4.09,4.09,0,0,1-1.56,1.19V77H123.4V65.69a5,5,0,0,1-2-1.6,5.92,5.92,0,0,1-1-3.7L120.35,38c0-1.32-.21-2.32.67-3.44a3.86,3.86,0,0,1,3-1.19h2.52V22.44H124A3.56,3.56,0,0,1,121,21.3a2.15,2.15,0,0,1-.64-1.66V18.13a5.92,5.92,0,0,1,2.11-5,8.06,8.06,0,0,1,5.73-1.57v-10C124.26.08,120.06.5,115.91.64M216.56,64a5.47,5.47,0,0,1-.61-3V36.25c0-16.11-15.25-17.9-25.61-12.16-1.05.44-3.64,1.28-3.64-.87V21.71H165.3V32.48A7.39,7.39,0,0,1,167,34.2a7.12,7.12,0,0,1,1.56,4.09V60.18a6.46,6.46,0,0,1-.64,3.34,4.25,4.25,0,0,1-1.41,1.42V77h24V65.3a5.19,5.19,0,0,1-2.19-1.72,5.61,5.61,0,0,1-1.18-3.4V39.42a14.47,14.47,0,0,1,.07-1.78,4.24,4.24,0,0,1,.32-1.58c.3-.77,1.5-1.06,2.08-1.06h3.07a3.67,3.67,0,0,1,3,1.59c1.94,2.19,1.31,6.47,1.31,9.15V77H218.1V65.34a3.72,3.72,0,0,1-1.54-1.3M26,22.85H30.8V33.41H26.42a3.85,3.85,0,0,0-3,1.29,5.33,5.33,0,0,0-.67,3.39v19c0,2.67,1,5.59,2.6,6.69a12.59,12.59,0,0,0,4.24,2.6V76.54c-3.78,1.72-7.93,1.41-12,1.32C6.27,77.32,3.46,71.4,3.46,63.36V39.28a8.46,8.46,0,0,0-.75-4A5.11,5.11,0,0,0,.56,32.89V23a2.69,2.69,0,0,0,1.66-.92,5.45,5.45,0,0,0,1.36-3.41V9.34l19-5.42V20a2.34,2.34,0,0,0,.48,1.52c.58,1.12,1.82,1.31,3,1.31" style="fill: #ec7700"/>
    <g id="tagline">
      <polygon points="243.16 43.45 248 43.45 248 26.34 254.72 26.34 254.72 21.71 236.48 21.71 236.48 26.34 243.16 26.34 243.16 43.45" style="fill: #3d4543"/>
      <path d="M269.67,29.59a4.87,4.87,0,0,0-1.79-1.3,6.37,6.37,0,0,0-2.59-.48,7.3,7.3,0,0,0-2.1.34,4.35,4.35,0,0,0-1.79,1V21.25h-4.66v22.2h4.66v-9a2.64,2.64,0,0,1,.73-1.77,2.37,2.37,0,0,1,1.78-.69,2.28,2.28,0,0,1,1.89.75,2.94,2.94,0,0,1,.59,1.89v8.77h4.66V33.88a8.26,8.26,0,0,0-.33-2.36,5.48,5.48,0,0,0-1.05-1.93" style="fill: #3d4543"/>
      <path d="M277.81,33.12a2.65,2.65,0,0,1,.58-.83,3.11,3.11,0,0,1,.94-.61,3.06,3.06,0,0,1,1.29-.25,3.39,3.39,0,0,1,1.39.25,2.88,2.88,0,0,1,.94.61,2.22,2.22,0,0,1,.53.83,2.92,2.92,0,0,1,.2.89h-6.1a2.73,2.73,0,0,1,.23-.89m10.1,5.94L284,38A3.27,3.27,0,0,1,283,39.4a3.22,3.22,0,0,1-2,.55,3.86,3.86,0,0,1-1.28-.21,3.36,3.36,0,0,1-1.09-.62,3.14,3.14,0,0,1-.77-.93,2.77,2.77,0,0,1-.32-1.18H288.1a2.49,2.49,0,0,0,.06-.51q0-.44,0-.93a7.82,7.82,0,0,0-2-5.76,7.52,7.52,0,0,0-5.59-2.06,7.41,7.41,0,0,0-2.86.57,7.56,7.56,0,0,0-4.12,4.14,8.43,8.43,0,0,0-.63,3.32,8.65,8.65,0,0,0,.65,3.44,7.42,7.42,0,0,0,4.29,4.13,8.62,8.62,0,0,0,5.62.17,6.93,6.93,0,0,0,2.07-1,5.69,5.69,0,0,0,1.47-1.55,6.46,6.46,0,0,0,.86-1.87" style="fill: #3d4543"/>
      <path d="M307,39a3.58,3.58,0,0,1-2.25.63,5.62,5.62,0,0,1-1.93-.31,4.41,4.41,0,0,1-1.38-.81,3.35,3.35,0,0,1-.84-1.2,4.71,4.71,0,0,1-.36-1.42L295.79,37a7.69,7.69,0,0,0,.67,2.39,7.07,7.07,0,0,0,1.63,2.24,8.55,8.55,0,0,0,2.7,1.67,10.31,10.31,0,0,0,3.89.66,9.17,9.17,0,0,0,3.43-.6,8,8,0,0,0,2.53-1.56,6.63,6.63,0,0,0,1.55-2.2,6.27,6.27,0,0,0,.52-2.51,6.11,6.11,0,0,0-.4-2.22,5.63,5.63,0,0,0-1.2-1.92,7.27,7.27,0,0,0-2-1.48,9.06,9.06,0,0,0-2.72-.91L303.51,30a3,3,0,0,1-1.64-.75,1.89,1.89,0,0,1-.5-1.33,2.11,2.11,0,0,1,.81-1.61,3.13,3.13,0,0,1,2.16-.72,4.08,4.08,0,0,1,1.66.29,3.53,3.53,0,0,1,1.09.7,3,3,0,0,1,.61.89,4.12,4.12,0,0,1,.26.84l4.35-1.22a8.42,8.42,0,0,0-.67-2,6.14,6.14,0,0,0-1.43-1.87,7.35,7.35,0,0,0-2.37-1.39,9.67,9.67,0,0,0-3.47-.56,8.45,8.45,0,0,0-3,.53,7.73,7.73,0,0,0-2.48,1.44,6.81,6.81,0,0,0-1.71,2.2,6.47,6.47,0,0,0-.62,2.82,5.92,5.92,0,0,0,1.56,4.14,7.53,7.53,0,0,0,4.35,2.24l3,.55a3.49,3.49,0,0,1,1.7.78,1.81,1.81,0,0,1,.62,1.4A2,2,0,0,1,307,39" style="fill: #3d4543"/>
      <path d="M319.13,33.12a2.49,2.49,0,0,1,.58-.83,3.11,3.11,0,0,1,.94-.61,3.06,3.06,0,0,1,1.29-.25,3.39,3.39,0,0,1,1.39.25,2.88,2.88,0,0,1,.94.61,2.22,2.22,0,0,1,.53.83,3.25,3.25,0,0,1,.2.89h-6.1a2.73,2.73,0,0,1,.23-.89m9.24,7.81a6.46,6.46,0,0,0,.86-1.87L325.34,38a3.27,3.27,0,0,1-1.06,1.44,3.22,3.22,0,0,1-2,.55,3.86,3.86,0,0,1-1.28-.21,3.26,3.26,0,0,1-1.09-.62,3.14,3.14,0,0,1-.77-.93,2.77,2.77,0,0,1-.32-1.18h10.61a2.49,2.49,0,0,0,.06-.51q0-.44,0-.93a7.82,7.82,0,0,0-2-5.76,7.53,7.53,0,0,0-5.6-2.06,7.4,7.4,0,0,0-2.85.57,7.47,7.47,0,0,0-2.43,1.61,7.64,7.64,0,0,0-1.69,2.53,8.43,8.43,0,0,0-.63,3.32,8.65,8.65,0,0,0,.65,3.44,7.42,7.42,0,0,0,4.29,4.13,8.62,8.62,0,0,0,5.62.17,6.93,6.93,0,0,0,2.07-1,6,6,0,0,0,1.47-1.55" style="fill: #3d4543"/>
      <path d="M341.42,38.91a3.1,3.1,0,0,1-2.13.71,3.89,3.89,0,0,1-1.38-.25,2.93,2.93,0,0,1-1.12-.74,3.6,3.6,0,0,1-.77-1.18,4.17,4.17,0,0,1-.29-1.61,4.3,4.3,0,0,1,.28-1.62,3.49,3.49,0,0,1,.75-1.2,3,3,0,0,1,1.1-.73,3.78,3.78,0,0,1,1.36-.25,3.44,3.44,0,0,1,1.2.19,2.75,2.75,0,0,1,.89.5,3.09,3.09,0,0,1,.61.74,3.85,3.85,0,0,1,.37.84l4.17-1.25a7.08,7.08,0,0,0-.83-2,6.38,6.38,0,0,0-1.5-1.7A7.22,7.22,0,0,0,342,28.2a8.34,8.34,0,0,0-2.82-.45,8.17,8.17,0,0,0-3.14.6,7.75,7.75,0,0,0-4.26,4.23,8.27,8.27,0,0,0-.63,3.26,7.92,7.92,0,0,0,2.39,5.8,8.07,8.07,0,0,0,2.59,1.67,8.49,8.49,0,0,0,3.21.6,7.68,7.68,0,0,0,4.9-1.66,6.9,6.9,0,0,0,1.52-1.68,6.51,6.51,0,0,0,.84-2l-4.11-1.25a3.31,3.31,0,0,1-1,1.56" style="fill: #3d4543"/>
      <path d="M349.83,42a5.36,5.36,0,0,0,1.82,1.29,6.08,6.08,0,0,0,2.47.47,6.32,6.32,0,0,0,2.32-.44,3.52,3.52,0,0,0,1.76-1.43c0,.21,0,.48,0,.82a4,4,0,0,0,.09.72h4.47c0-.13,0-.44-.09-.94s-.06-1.1-.06-1.79V28.21H358v8.68a2.61,2.61,0,0,1-.69,1.88,2.43,2.43,0,0,1-1.85.72,2.22,2.22,0,0,1-1.86-.76,3,3,0,0,1-.59-1.87V28.21h-4.66v9.63a6.94,6.94,0,0,0,.38,2.3A5.66,5.66,0,0,0,349.83,42" style="fill: #3d4543"/>
      <path d="M370.18,36.8a5.83,5.83,0,0,1,.29-1.94,3.45,3.45,0,0,1,.79-1.28,2.75,2.75,0,0,1,1.13-.71,4.33,4.33,0,0,1,1.35-.21l.7,0a5.56,5.56,0,0,1,.77.12v-4.6a4.5,4.5,0,0,0-1.23-.15,4.87,4.87,0,0,0-1,.11,5.18,5.18,0,0,0-1.12.35,4,4,0,0,0-1,.67,3.33,3.33,0,0,0-.78,1.08V28.21h-4.51V43.45h4.66Z" style="fill: #3d4543"/>
      <rect x="377.42" y="28.21" width="4.66" height="15.23" style="fill: #3d4543"/>
      <path d="M377.82,25.48a2.82,2.82,0,0,0,.85.59,2.78,2.78,0,0,0,3-.59,2.73,2.73,0,0,0,0-3.86,2.79,2.79,0,0,0-3-.58,2.79,2.79,0,0,0-.85.58,2.83,2.83,0,0,0-.59.88,2.7,2.7,0,0,0-.21,1.05,2.75,2.75,0,0,0,.21,1.06,2.68,2.68,0,0,0,.59.87" style="fill: #3d4543"/>
      <path d="M394,43.29V39.43a3.89,3.89,0,0,1-.54.11,4.88,4.88,0,0,1-.68,0,2.06,2.06,0,0,1-1.23-.32,1.45,1.45,0,0,1-.46-1.27v-5.7h3V28.21h-3V23.77H387v2a2.7,2.7,0,0,1-.58,1.78,2.17,2.17,0,0,1-1.78.7h-.77v4.08h2.7v6.53a4.77,4.77,0,0,0,1.35,3.6,5.14,5.14,0,0,0,3.74,1.3,6.1,6.1,0,0,0,1.69-.18,7.48,7.48,0,0,0,.73-.25" style="fill: #3d4543"/>
      <polygon points="397.99 49.3 402.89 49.3 412.27 28.21 407.33 28.21 403.96 36.37 400.25 28.21 395.04 28.21 401.45 41.39 397.99 49.3" style="fill: #3d4543"/>
      <path d="M248.19,64.25A3.34,3.34,0,0,1,246,65h-2.82V59.44H246a3.29,3.29,0,0,1,2.24.74,2.55,2.55,0,0,1,.85,2,2.52,2.52,0,0,1-.85,2m3.63-7a7.41,7.41,0,0,0-2.36-1.44,8.36,8.36,0,0,0-3-.52h-8.19V77h4.85V69.16h3.34a8.58,8.58,0,0,0,3-.51,7.19,7.19,0,0,0,2.36-1.42A6.36,6.36,0,0,0,253.35,65a7.23,7.23,0,0,0,.54-2.82,7.15,7.15,0,0,0-.54-2.79,6.36,6.36,0,0,0-1.53-2.21" style="fill: #3d4543"/>
      <path d="M265.28,71a3.66,3.66,0,0,1-.77,1.18,3.09,3.09,0,0,1-1.09.7,3.68,3.68,0,0,1-2.56,0,3,3,0,0,1-1.1-.7A3.65,3.65,0,0,1,259,71a5,5,0,0,1,0-3.34,3.45,3.45,0,0,1,.77-1.18,2.93,2.93,0,0,1,1.1-.69,3.68,3.68,0,0,1,2.56,0,3.06,3.06,0,0,1,1.09.69,3.45,3.45,0,0,1,.77,1.18,5,5,0,0,1,0,3.36m2.6-7.48a7.67,7.67,0,0,0-2.56-1.67,8.75,8.75,0,0,0-6.37,0,7.57,7.57,0,0,0-2.56,1.67,7.76,7.76,0,0,0-1.72,2.54,8.19,8.19,0,0,0-.63,3.25,8.29,8.29,0,0,0,.63,3.27,7.85,7.85,0,0,0,1.72,2.56A7.72,7.72,0,0,0,259,76.84a8.89,8.89,0,0,0,6.37,0,7.7,7.7,0,0,0,4.28-4.23,8.29,8.29,0,0,0,.63-3.27,8.19,8.19,0,0,0-.63-3.25,7.76,7.76,0,0,0-1.72-2.54" style="fill: #3d4543"/>
      <rect x="272.16" y="54.78" width="4.66" height="22.19" style="fill: #3d4543"/>
      <rect x="280" y="61.74" width="4.66" height="15.23" style="fill: #3d4543"/>
      <path d="M282.3,54.35a2.49,2.49,0,0,0-1,.22,2.66,2.66,0,0,0-.86.58,2.75,2.75,0,0,0,0,3.86,2.66,2.66,0,0,0,.86.58,2.49,2.49,0,0,0,1,.22,2.66,2.66,0,0,0,2-.8,2.73,2.73,0,0,0,0-3.86,2.66,2.66,0,0,0-2-.8" style="fill: #3d4543"/>
      <path d="M297.18,72.44a3.06,3.06,0,0,1-2.13.7,3.93,3.93,0,0,1-1.38-.24,3,3,0,0,1-1.11-.74,3.6,3.6,0,0,1-.77-1.18,4,4,0,0,1-.29-1.61,4.51,4.51,0,0,1,.27-1.62,3.82,3.82,0,0,1,.75-1.2,3,3,0,0,1,1.11-.73,3.58,3.58,0,0,1,1.36-.25,3.69,3.69,0,0,1,1.2.18,2.76,2.76,0,0,1,1.5,1.25,3.47,3.47,0,0,1,.37.84l4.17-1.26a7.33,7.33,0,0,0-.83-2,6.7,6.7,0,0,0-1.5-1.7,7.58,7.58,0,0,0-2.18-1.18,8.6,8.6,0,0,0-2.82-.44,8.17,8.17,0,0,0-3.14.6,7.67,7.67,0,0,0-4.26,4.23,8.27,8.27,0,0,0-.63,3.26,7.87,7.87,0,0,0,5,7.47,8.67,8.67,0,0,0,3.2.59,7.72,7.72,0,0,0,2.76-.46A7.56,7.56,0,0,0,300,75.78a6.75,6.75,0,0,0,2.36-3.65l-4.11-1.26a3.24,3.24,0,0,1-1,1.57" style="fill: #3d4543"/>
      <polygon points="311.02 69.89 307.31 61.74 302.11 61.74 308.51 74.92 305.05 82.83 309.95 82.83 319.33 61.74 314.4 61.74 311.02 69.89" style="fill: #3d4543"/>
      <path d="M341.35,69.8a5,5,0,0,1-1.05,1.33,5.52,5.52,0,0,1-1.69,1.05,7,7,0,0,1-4.77,0,5.9,5.9,0,0,1-2-1.26,6.11,6.11,0,0,1-1.39-2,6.72,6.72,0,0,1-.52-2.73,7.32,7.32,0,0,1,.55-3,6.08,6.08,0,0,1,1.44-2.07,6,6,0,0,1,2-1.21,6.79,6.79,0,0,1,4.65,0,5.07,5.07,0,0,1,1.64,1,4.85,4.85,0,0,1,1,1.33,5.3,5.3,0,0,1,.48,1.26l4.56-1.44a10,10,0,0,0-1-2.46,8.64,8.64,0,0,0-1.92-2.37,9.92,9.92,0,0,0-3-1.79,12.23,12.23,0,0,0-8.54.12,11,11,0,0,0-3.57,2.31,11.13,11.13,0,0,0-2.44,3.59,12.45,12.45,0,0,0,0,9.27,10.55,10.55,0,0,0,6,5.84,11.88,11.88,0,0,0,4.41.81,11.24,11.24,0,0,0,4.35-.76,10.1,10.1,0,0,0,3.08-1.92,9,9,0,0,0,1.93-2.47,10.11,10.11,0,0,0,1-2.45l-4.63-1.32a5.58,5.58,0,0,1-.54,1.29" style="fill: #3d4543"/>
      <path d="M358.7,71a3.64,3.64,0,0,1-.76,1.18,3.09,3.09,0,0,1-1.09.7,3.68,3.68,0,0,1-2.56,0,3,3,0,0,1-1.1-.7,3.49,3.49,0,0,1-.77-1.2,5,5,0,0,1,0-3.34,3.31,3.31,0,0,1,.77-1.18,2.93,2.93,0,0,1,1.1-.69,3.68,3.68,0,0,1,2.56,0,3.06,3.06,0,0,1,1.09.69,3.43,3.43,0,0,1,.76,1.18,4.85,4.85,0,0,1,0,3.36m2.61-7.48a7.77,7.77,0,0,0-2.56-1.67,8.78,8.78,0,0,0-6.38,0,7.77,7.77,0,0,0-2.56,1.67,7.89,7.89,0,0,0-1.71,2.54,8.19,8.19,0,0,0-.63,3.25,8.29,8.29,0,0,0,.63,3.27,7.65,7.65,0,0,0,4.27,4.23,8.92,8.92,0,0,0,6.38,0A7.7,7.7,0,0,0,363,72.61a8.47,8.47,0,0,0,.62-3.27,8.37,8.37,0,0,0-.62-3.25,7.92,7.92,0,0,0-1.72-2.54" style="fill: #3d4543"/>
      <path d="M387.7,62.63a4.85,4.85,0,0,0-1.81-1,7.08,7.08,0,0,0-2.1-.32,6,6,0,0,0-2.69.55,5.39,5.39,0,0,0-2,1.84,4.15,4.15,0,0,0-1.71-1.76,5.7,5.7,0,0,0-2.79-.63,5.79,5.79,0,0,0-1.28.15,5.66,5.66,0,0,0-1.25.45,5.34,5.34,0,0,0-1.09.7,3.43,3.43,0,0,0-.77.91V61.74h-4.44V77h4.66V68.21a2.82,2.82,0,0,1,.64-1.84,2.27,2.27,0,0,1,1.87-.8,2.22,2.22,0,0,1,1.87.75,2.88,2.88,0,0,1,.58,1.83V77H380V68.18a2.79,2.79,0,0,1,.65-1.81,2.29,2.29,0,0,1,1.9-.8,2.16,2.16,0,0,1,1.83.75,2.89,2.89,0,0,1,.59,1.83V77h4.5V67.1a6.81,6.81,0,0,0-.47-2.66,5.14,5.14,0,0,0-1.26-1.81" style="fill: #3d4543"/>
      <path d="M403.2,71a3.35,3.35,0,0,1-.77,1.2,3.21,3.21,0,0,1-1.12.7,3.71,3.71,0,0,1-2.6,0,3.43,3.43,0,0,1-1.11-.72,3.62,3.62,0,0,1-.75-1.18,4.66,4.66,0,0,1-.27-1.66,4.6,4.6,0,0,1,.27-1.65,3.51,3.51,0,0,1,.75-1.18,3,3,0,0,1,1.11-.71,3.78,3.78,0,0,1,1.3-.23,3.83,3.83,0,0,1,1.3.23,3.09,3.09,0,0,1,1.12.71,3.27,3.27,0,0,1,.77,1.18,4.6,4.6,0,0,1,.27,1.65A4.76,4.76,0,0,1,403.2,71m2.95-7.39A6.33,6.33,0,0,0,403.93,62a7.1,7.1,0,0,0-3-.6,6.12,6.12,0,0,0-2.82.6,4.31,4.31,0,0,0-1.66,1.33V61.74H392V82.8h4.66v-7a3.94,3.94,0,0,0,1.59,1.09,6.8,6.8,0,0,0,2.55.44,7,7,0,0,0,2.92-.6,6.93,6.93,0,0,0,2.3-1.65,7.36,7.36,0,0,0,1.5-2.53,9.26,9.26,0,0,0,.54-3.22,9.8,9.8,0,0,0-.49-3.17,7.53,7.53,0,0,0-1.4-2.52" style="fill: #3d4543"/>
      <path d="M418.71,71a3.88,3.88,0,0,1-.25,1.47,2.46,2.46,0,0,1-.63.93,2,2,0,0,1-.89.49,3.92,3.92,0,0,1-1,.14,1.8,1.8,0,0,1-1.4-.47,1.64,1.64,0,0,1-.41-1.09,1.39,1.39,0,0,1,.49-1.18,2.6,2.6,0,0,1,1.22-.51l2.89-.46Zm4.53,3.61V67.16a6.94,6.94,0,0,0-.35-2.23A4.64,4.64,0,0,0,421.73,63a5.93,5.93,0,0,0-2.1-1.29,9.25,9.25,0,0,0-3.13-.47,7.78,7.78,0,0,0-2.91.49,6.75,6.75,0,0,0-2,1.23,5.24,5.24,0,0,0-1.24,1.62,4.63,4.63,0,0,0-.49,1.72l4,.82a2.43,2.43,0,0,1,.72-1.54,3,3,0,0,1,3.56-.2,1.47,1.47,0,0,1,.57,1.16,1,1,0,0,1-.25.68,1.41,1.41,0,0,1-.86.36l-3.58.56a7.43,7.43,0,0,0-1.77.5,5.11,5.11,0,0,0-1.42.92,4.11,4.11,0,0,0-1,1.37,4.47,4.47,0,0,0,1,5,5,5,0,0,0,1.66,1,6.2,6.2,0,0,0,2.23.38,5.41,5.41,0,0,0,2.61-.58,4.44,4.44,0,0,0,1.68-1.56,7.44,7.44,0,0,0,.07,1.21,4.44,4.44,0,0,0,.09.5h4.2c0-.08-.06-.34-.11-.79a14.25,14.25,0,0,1-.08-1.57" style="fill: #3d4543"/>
      <path d="M439.23,63.12a4.79,4.79,0,0,0-1.73-1.3,6,6,0,0,0-2.49-.48,5.84,5.84,0,0,0-1.21.14,5.38,5.38,0,0,0-1.19.4,4.69,4.69,0,0,0-1.06.66,3.19,3.19,0,0,0-.8,1V61.74h-4.5V77h4.66V68.24a2.76,2.76,0,0,1,.67-1.92,2.35,2.35,0,0,1,1.84-.75,2.28,2.28,0,0,1,1.89.75,3,3,0,0,1,.59,1.89V77h4.66V67.41a8.57,8.57,0,0,0-.32-2.36,5.17,5.17,0,0,0-1-1.93" style="fill: #3d4543"/>
      <polygon points="452.95 61.74 449.57 69.89 445.87 61.74 440.65 61.74 447.06 74.92 443.6 82.83 448.5 82.83 457.88 61.74 452.95 61.74" style="fill: #3d4543"/>
      <path d="M461.13,72.88a2.85,2.85,0,0,0-.69-1,3.27,3.27,0,0,0-1-.68,3.17,3.17,0,0,0-2.42,0,3.11,3.11,0,0,0-1,.68,3.08,3.08,0,0,0-.67,3.41,3.08,3.08,0,0,0,.67,1,3.31,3.31,0,0,0,1,.69,2.95,2.95,0,0,0,2.42,0,3.49,3.49,0,0,0,1-.69,3,3,0,0,0,.69-1,3.05,3.05,0,0,0,0-2.42" style="fill: #ec7700"/>
    </g>
  </g>
</svg>
